PathFileType	4	(X/Y/Z)	50_2_79_p1_0-301_filt_butterworth.trc
DataRate	CameraRate	NumFrames	NumMarkers	Units	OrigDataRate	OrigDataStartFrame	OrigNumFrames
60.0	60.0	5	27	m	60.0	150	301
Frame#	Time	RHip			RKnee			RAnkle			RBigToe			RSmallToe			RHeel			LHip			LKnee			LAnkle			LBigToe			LSmallToe			LHeel			Neck			Head			Nose			RShoulder			RElbow			RWrist			RThumb			RIndex			RPinky			LShoulder			LElbow			LWrist			LThumb			LIndex			LPinky			
		X1	Y1	Z1	X2	Y2	Z2	X3	Y3	Z3	X4	Y4	Z4	X5	Y5	Z5	X6	Y6	Z6	X7	Y7	Z7	X8	Y8	Z8	X9	Y9	Z9	X10	Y10	Z10	X11	Y11	Z11	X12	Y12	Z12	X13	Y13	Z13	X14	Y14	Z14	X15	Y15	Z15	X16	Y16	Z16	X17	Y17	Z17	X18	Y18	Z18	X19	Y19	Z19	X20	Y20	Z20	X21	Y21	Z21	X22	Y22	Z22	X23	Y23	Z23	X24	Y24	Z24	X25	Y25	Z25	X26	Y26	Z26	X27	Y27	Z27	
150	2.5	0.3212981851096379	0.7351854752192628	0.5296908029523455	0.2885603273713467	0.8765725981025173	0.9419753665645401	0.31228073972059023	1.041280704819338	1.377530294900753	0.2296543006263506	0.7673633103688904	1.3771348763570126	0.301391963308272	0.8474973609674921	1.4097772925967809	0.2989101619403454	1.1456229993455551	1.4389929930665355	0.09673778831078736	0.7481571323496381	0.5231169121473955	0.10207874386199062	0.891117381684757	0.9357908379298102	0.11856309576371571	1.0368918676959589	1.3626328751548122	0.10360607438890139	0.7908065135962674	1.3703863646549042	0.06757694344347981	0.8248406940413029	1.3671299283975495	0.12571266380765392	1.1336910364784019	1.4308412475841235	0.2160854908493732	0.5735563810820196	-0.03438609642242755	0.2270025976594124	0.4351552544616883	-0.26670695874803485	0.2035884053751144	0.39464372362515443	-0.11666659285937431	0.3711194089685873	0.5971960301451837	0.05588337977037003	0.4178919328526695	0.6896397022312809	0.320447568429286	0.4534330642223821	0.6871842748376374	0.5797047913470716	0.436841251706329	0.7354641938227147	0.7198058965901963	0.4509996674626505	0.7313946148507056	0.737093575427194	0.45391735916371845	0.7708361495081647	0.7205398220206966	0.06256638373117773	0.6292032617872392	0.04407398338744583	0.007761701496597289	0.712865540699523	0.29970174868894217	-0.027234455507437624	0.7658909046812712	0.5754434989676414	-0.022056479958608932	0.797952921104087	0.6957797924387135	-0.036941864038762276	0.8121938449755103	0.7134494125067915	-0.032962279995981884	0.7967374917876077	0.6990003574057093
151	2.5166666666666666	0.3207087733544818	0.7335502746434973	0.529230812479606	0.2884684276142293	0.8763467650661929	0.9416940486490627	0.3122674686508226	1.0412519268880351	1.377593973679978	0.22997166376066136	0.7684232353488221	1.3773583978314226	0.30206904413313346	0.8493434924580185	1.4103239144903768	0.29859662923060587	1.1462368921015806	1.4392640175697147	0.09654486311473755	0.7473781391810107	0.5209137868165135	0.10149239848070551	0.8911549837508251	0.9357915115168263	0.1185280302583045	1.0367539822042242	1.3625967362453255	0.10409855297995377	0.7910029287921588	1.3704681208825609	0.06753748645774203	0.8247925813444015	1.367158072990816	0.12550297480621553	1.1332491153694977	1.4307742048547303	0.2150722571139116	0.5700518966563479	-0.03389028704473701	0.225941872595573	0.439245815508448	-0.2676643862593845	0.20354445211216893	0.3948195229232366	-0.11662899106280833	0.3711299103540392	0.5971330437350181	0.055883972476186594	0.41769089171771306	0.6888401456436194	0.32045028362907546	0.45180435729748	0.6863816537918997	0.578962761865546	0.43575574888191926	0.7309224958434426	0.7171110974679858	0.44908163574382354	0.7309525660042873	0.737280555999332	0.44994416684004374	0.7718699475925571	0.7199867892861288	0.06254882381595563	0.629194664160263	0.04407398243214634	0.0059891753067308475	0.7125419401441889	0.2997214003738545	-0.027459458625809487	0.7661859840693517	0.5755215572038953	-0.024350369422042172	0.7971918431580161	0.6950997369789084	-0.03829675765792974	0.8136353464371631	0.7136093123342288	-0.035292424885507344	0.7979010216019167	0.6991781677108044
152	2.533333333333333	0.3193329734452001	0.7294343919084348	0.528060242080172	0.28845178875021454	0.8762276981834196	0.9413225009082762	0.31226618980439647	1.041206883558203	1.3776881330167203	0.23006888896450098	0.7687767796878173	1.3774350412087082	0.3021460784830253	0.8490528934489435	1.4101576051097158	0.2985399330431312	1.146258079096997	1.4390250900391293	0.09643623431675703	0.7468007462659836	0.5199691660212961	0.1000222603036007	0.8912161433097828	0.9358423263371841	0.11858343191476706	1.0365209159551774	1.362513009018568	0.10530259012413676	0.7914405306927027	1.3706238912639606	0.06750989414674377	0.8248161797009165	1.367195616288454	0.12561396356021481	1.1339579154748465	1.431093897209183	0.21369316858792178	0.5655256976687322	-0.03324722954082914	0.22512313207697238	0.4423620318046426	-0.2684346280019592	0.20357186419437104	0.39506580313644274	-0.11625363814081187	0.3711281877379381	0.5971066423722117	0.055877201566778445	0.41751371792830405	0.6881336092658402	0.3203504379662692	0.4510116100620901	0.6837713445357346	0.5767141262057061	0.43370669072758355	0.7303609516482699	0.7162278799595804	0.4473284912257899	0.7341634823363229	0.7380147644946552	0.4476455765607029	0.7743804617619308	0.7191178758026718	0.062124869561228105	0.6289651996424672	0.04410237442083296	0.0028571374054075453	0.7113126571767684	0.2997369240720206	-0.027525305279854563	0.7665771584603398	0.5756018175436729	-0.024782582129184435	0.7969352895047584	0.6948927223822481	-0.039078815711508855	0.8132153072084481	0.713578844575486	-0.03741662005820409	0.7987387688474756	0.6992987127130802
153	2.55	0.3175704638538445	0.7240243967429942	0.5265489291029396	0.2883809297060319	0.8763379123917411	0.9412060631648991	0.31227924062387535	1.0411789097828317	1.3776727037252736	0.23005318428968147	0.7684454530764758	1.377325825001469	0.30171609930594456	0.8474944139950926	1.4094636178737725	0.2987584502545374	1.1458891391363084	1.438689783862863	0.09631034504370965	0.7462663075144911	0.519850791270645	0.09871086345802052	0.8911026478732269	0.9358752891998248	0.11868770840545714	1.0361230259891776	1.3623762326866573	0.10690701149348598	0.7920354843499153	1.370829268982784	0.06750387212658139	0.8249043527213884	1.3672374717440356	0.12590024200583183	1.1350824706332998	1.4314915376102786	0.2126432271917505	0.5619793183026099	-0.03274114451403322	0.224781497929204	0.4436313233189711	-0.2687050798374386	0.20364795503344552	0.39546185207962037	-0.11540393690273007	0.37112978095699073	0.5970808988058373	0.05587058855001187	0.4178328725728352	0.6888517475178935	0.32017745591836866	0.44986538501493145	0.6791142357744363	0.5736096650413013	0.42918105170023463	0.7318984555731177	0.7161757653322108	0.44439852713440664	0.7407327706002751	0.7387178051342776	0.44522476634389924	0.7788988512695735	0.7181208490259863	0.06107060406434155	0.6284263279084878	0.04416951780596999	-0.0005401150439502583	0.7099559072329129	0.2997614992378287	-0.027952554847406136	0.7666575079894542	0.5756149096392204	-0.02432030362448671	0.7968326166247651	0.6950246506085637	-0.0395216330341879	0.8111547629782114	0.7133662545760202	-0.038677259806035626	0.7990982291240325	0.6993413543633752
154	2.566666666666667	0.3162660510697237	0.7199434459168264	0.5254657405122277	0.28796801283641327	0.8764166403235545	0.941551167614239	0.31230448486726103	1.0412277967444539	1.3772306867949797	0.230082287576424	0.7676107307466356	1.3770649893575155	0.3007930736363926	0.8452409737259421	1.408332591996467	0.29872213562599176	1.1457176058063179	1.4386566155824236	0.09611596503283318	0.7457422982295493	0.5199839611170091	0.09809541230987504	0.8908728670273001	0.9358733607623686	0.11869791608180266	1.036141063087309	1.3623623813851404	0.10817440386045798	0.7925297121152153	1.3709995096802514	0.06752068529915735	0.825036268846271	1.3672768192061375	0.12618009593644042	1.1359231259629536	1.431733332222315	0.21229697576801043	0.5603221104487236	-0.03250235705479113	0.22476662772552952	0.4437747566276692	-0.26837403998930703	0.20369799477546513	0.3959402028327712	-0.11439349480838537	0.37116674880746725	0.5970627718795396	0.055868800386517925	0.4190418976430297	0.6920675265566871	0.32002604538065077	0.4478690954771926	0.6738120510694132	0.5711361007641625	0.4214093343887034	0.7296715158081539	0.7154718162599984	0.43955332869776503	0.7451478317815132	0.7395256720409317	0.4415845221286256	0.7834658627549267	0.7172486601885301	0.059687393319928436	0.6277952595742325	0.044239392697046936	-0.0034450631663406144	0.7091023812827373	0.2997664631946422	-0.02903982830382555	0.7663417939919255	0.575506570583352	-0.024118570695610263	0.7968877765701181	0.6957216792319137	-0.03941531160816106	0.807186184332684	0.712952180378052	-0.039489721900797185	0.7988634590077991	0.6992799461545228
